<mxfile host="Electron" modified="2024-01-08T16:24:54.314Z" agent="Mozilla/5.0 (Windows NT 10.0; Win64; x64) AppleWebKit/537.36 (KHTML, like Gecko) draw.io/22.1.16 Chrome/120.0.6099.109 Electron/28.1.0 Safari/537.36" version="22.1.16" etag="DfeKBTUw-7t-sbvPmmOr" type="device">
  <diagram id="D8fkURHyANMpih5rnkmA" name="Страница — 1">
    <mxGraphModel dx="718" dy="845" grid="1" gridSize="10" guides="1" tooltips="1" connect="1" arrows="1" fold="1" page="1" pageScale="1" pageWidth="827" pageHeight="1169" math="0" shadow="0">
      <root>
        <mxCell id="0" />
        <mxCell id="1" parent="0" />
        <mxCell id="11rlWMmekfV-KqHWhoUA-5" value="" style="edgeStyle=orthogonalEdgeStyle;rounded=0;orthogonalLoop=1;jettySize=auto;html=1;strokeColor=#0B4D6A;" edge="1" parent="1" source="11rlWMmekfV-KqHWhoUA-1" target="11rlWMmekfV-KqHWhoUA-4">
          <mxGeometry relative="1" as="geometry" />
        </mxCell>
        <mxCell id="11rlWMmekfV-KqHWhoUA-1" value="&lt;font style=&quot;font-size: 24px;&quot;&gt;Начало&lt;/font&gt;" style="rounded=1;whiteSpace=wrap;html=1;fillColor=#e1d5e7;labelBackgroundColor=none;strokeColor=#9673a6;" vertex="1" parent="1">
          <mxGeometry x="354" y="40" width="120" height="60" as="geometry" />
        </mxCell>
        <mxCell id="11rlWMmekfV-KqHWhoUA-7" value="" style="edgeStyle=orthogonalEdgeStyle;rounded=0;orthogonalLoop=1;jettySize=auto;html=1;strokeColor=#0B4D6A;" edge="1" parent="1" source="11rlWMmekfV-KqHWhoUA-4" target="11rlWMmekfV-KqHWhoUA-6">
          <mxGeometry relative="1" as="geometry" />
        </mxCell>
        <mxCell id="11rlWMmekfV-KqHWhoUA-4" value="Определение тематики романа&lt;br&gt;&lt;p class=&quot;MsoNormal&quot;&gt;&lt;/p&gt;" style="rounded=0;whiteSpace=wrap;html=1;strokeColor=#6c8ebf;fillColor=#dae8fc;" vertex="1" parent="1">
          <mxGeometry x="354" y="110" width="120" height="50" as="geometry" />
        </mxCell>
        <mxCell id="11rlWMmekfV-KqHWhoUA-9" value="" style="edgeStyle=orthogonalEdgeStyle;rounded=0;orthogonalLoop=1;jettySize=auto;html=1;strokeColor=#0B4D6A;" edge="1" parent="1" source="11rlWMmekfV-KqHWhoUA-6" target="11rlWMmekfV-KqHWhoUA-8">
          <mxGeometry relative="1" as="geometry" />
        </mxCell>
        <mxCell id="11rlWMmekfV-KqHWhoUA-6" value="&lt;p class=&quot;MsoNormal&quot;&gt;Определение места или мира Романа&lt;/p&gt;" style="whiteSpace=wrap;html=1;fillColor=#dae8fc;strokeColor=#6c8ebf;rounded=0;" vertex="1" parent="1">
          <mxGeometry x="354" y="170" width="120" height="40" as="geometry" />
        </mxCell>
        <mxCell id="11rlWMmekfV-KqHWhoUA-11" value="" style="edgeStyle=orthogonalEdgeStyle;rounded=0;orthogonalLoop=1;jettySize=auto;html=1;strokeColor=#0B4D6A;" edge="1" parent="1" source="11rlWMmekfV-KqHWhoUA-8" target="11rlWMmekfV-KqHWhoUA-10">
          <mxGeometry relative="1" as="geometry" />
        </mxCell>
        <mxCell id="11rlWMmekfV-KqHWhoUA-8" value="&lt;p class=&quot;MsoNormal&quot;&gt;Краткое описание идеи романа&lt;/p&gt;" style="whiteSpace=wrap;html=1;fillColor=#dae8fc;strokeColor=#6c8ebf;rounded=0;" vertex="1" parent="1">
          <mxGeometry x="354" y="230" width="120" height="40" as="geometry" />
        </mxCell>
        <mxCell id="11rlWMmekfV-KqHWhoUA-13" value="" style="edgeStyle=orthogonalEdgeStyle;rounded=0;orthogonalLoop=1;jettySize=auto;html=1;strokeColor=#0B4D6A;" edge="1" parent="1" source="11rlWMmekfV-KqHWhoUA-10" target="11rlWMmekfV-KqHWhoUA-12">
          <mxGeometry relative="1" as="geometry" />
        </mxCell>
        <mxCell id="11rlWMmekfV-KqHWhoUA-10" value="&lt;p class=&quot;MsoNormal&quot;&gt;Описание сюжетной линии&lt;/p&gt;" style="whiteSpace=wrap;html=1;fillColor=#dae8fc;strokeColor=#6c8ebf;rounded=0;" vertex="1" parent="1">
          <mxGeometry x="354" y="290" width="120" height="40" as="geometry" />
        </mxCell>
        <mxCell id="11rlWMmekfV-KqHWhoUA-15" value="" style="edgeStyle=orthogonalEdgeStyle;rounded=0;orthogonalLoop=1;jettySize=auto;html=1;strokeColor=#0B4D6A;" edge="1" parent="1" source="11rlWMmekfV-KqHWhoUA-12" target="11rlWMmekfV-KqHWhoUA-14">
          <mxGeometry relative="1" as="geometry" />
        </mxCell>
        <mxCell id="11rlWMmekfV-KqHWhoUA-12" value="Сбор&lt;br/&gt;фактов и материалов о мире, в котором разворачивается сюжет" style="whiteSpace=wrap;html=1;fillColor=#dae8fc;strokeColor=#6c8ebf;rounded=0;" vertex="1" parent="1">
          <mxGeometry x="309" y="350" width="210" height="60" as="geometry" />
        </mxCell>
        <mxCell id="11rlWMmekfV-KqHWhoUA-17" value="" style="edgeStyle=orthogonalEdgeStyle;rounded=0;orthogonalLoop=1;jettySize=auto;html=1;strokeColor=#0B4D6A;" edge="1" parent="1" source="11rlWMmekfV-KqHWhoUA-14" target="11rlWMmekfV-KqHWhoUA-16">
          <mxGeometry relative="1" as="geometry" />
        </mxCell>
        <mxCell id="11rlWMmekfV-KqHWhoUA-14" value="Определение&lt;br/&gt;персонажей Романа" style="whiteSpace=wrap;html=1;fillColor=#dae8fc;strokeColor=#6c8ebf;rounded=0;" vertex="1" parent="1">
          <mxGeometry x="354" y="430" width="120" height="40" as="geometry" />
        </mxCell>
        <mxCell id="11rlWMmekfV-KqHWhoUA-19" value="" style="edgeStyle=orthogonalEdgeStyle;rounded=0;orthogonalLoop=1;jettySize=auto;html=1;strokeColor=#0B4D6A;" edge="1" parent="1" source="11rlWMmekfV-KqHWhoUA-16" target="11rlWMmekfV-KqHWhoUA-18">
          <mxGeometry relative="1" as="geometry" />
        </mxCell>
        <mxCell id="11rlWMmekfV-KqHWhoUA-16" value="&lt;p class=&quot;MsoNormal&quot;&gt;Краткое описание персонажей романа&lt;/p&gt;" style="whiteSpace=wrap;html=1;fillColor=#dae8fc;strokeColor=#6c8ebf;rounded=0;" vertex="1" parent="1">
          <mxGeometry x="354" y="490" width="120" height="40" as="geometry" />
        </mxCell>
        <mxCell id="11rlWMmekfV-KqHWhoUA-21" value="" style="edgeStyle=orthogonalEdgeStyle;rounded=0;orthogonalLoop=1;jettySize=auto;html=1;strokeColor=#0B4D6A;" edge="1" parent="1" source="11rlWMmekfV-KqHWhoUA-18" target="11rlWMmekfV-KqHWhoUA-20">
          <mxGeometry relative="1" as="geometry" />
        </mxCell>
        <mxCell id="11rlWMmekfV-KqHWhoUA-18" value="&lt;p class=&quot;MsoNormal&quot;&gt;Хронология событий Романа&lt;/p&gt;" style="whiteSpace=wrap;html=1;fillColor=#dae8fc;strokeColor=#6c8ebf;rounded=0;" vertex="1" parent="1">
          <mxGeometry x="354" y="550" width="120" height="40" as="geometry" />
        </mxCell>
        <mxCell id="11rlWMmekfV-KqHWhoUA-67" value="" style="edgeStyle=orthogonalEdgeStyle;rounded=0;orthogonalLoop=1;jettySize=auto;html=1;strokeColor=#0B4D6A;" edge="1" parent="1" source="11rlWMmekfV-KqHWhoUA-20" target="11rlWMmekfV-KqHWhoUA-24">
          <mxGeometry relative="1" as="geometry" />
        </mxCell>
        <mxCell id="11rlWMmekfV-KqHWhoUA-20" value="Создание&lt;br/&gt;развернутого плана по главам романа в разрезе хронологии событий" style="whiteSpace=wrap;html=1;fillColor=#dae8fc;strokeColor=#6c8ebf;rounded=0;" vertex="1" parent="1">
          <mxGeometry x="269" y="610" width="290" height="50" as="geometry" />
        </mxCell>
        <mxCell id="11rlWMmekfV-KqHWhoUA-29" value="" style="edgeStyle=orthogonalEdgeStyle;rounded=0;orthogonalLoop=1;jettySize=auto;html=1;strokeColor=#0B4D6A;" edge="1" parent="1" source="11rlWMmekfV-KqHWhoUA-24" target="11rlWMmekfV-KqHWhoUA-28">
          <mxGeometry relative="1" as="geometry" />
        </mxCell>
        <mxCell id="11rlWMmekfV-KqHWhoUA-24" value="Создание черновика" style="shape=trapezoid;perimeter=trapezoidPerimeter;whiteSpace=wrap;html=1;fixedSize=1;fillColor=#d5e8d4;strokeColor=#82b366;rounded=0;" vertex="1" parent="1">
          <mxGeometry x="289" y="690" width="250" height="30" as="geometry" />
        </mxCell>
        <mxCell id="11rlWMmekfV-KqHWhoUA-31" value="" style="edgeStyle=orthogonalEdgeStyle;rounded=0;orthogonalLoop=1;jettySize=auto;html=1;strokeColor=#0B4D6A;" edge="1" parent="1" source="11rlWMmekfV-KqHWhoUA-28">
          <mxGeometry relative="1" as="geometry">
            <mxPoint x="414" y="820" as="targetPoint" />
          </mxGeometry>
        </mxCell>
        <mxCell id="11rlWMmekfV-KqHWhoUA-28" value="Пишем сцену по порядку из плана" style="whiteSpace=wrap;html=1;fillColor=#d5e8d4;strokeColor=#82b366;rounded=0;" vertex="1" parent="1">
          <mxGeometry x="289" y="750" width="250" height="50" as="geometry" />
        </mxCell>
        <mxCell id="11rlWMmekfV-KqHWhoUA-34" value="" style="edgeStyle=orthogonalEdgeStyle;rounded=0;orthogonalLoop=1;jettySize=auto;html=1;strokeColor=#0B4D6A;" edge="1" parent="1" source="11rlWMmekfV-KqHWhoUA-32" target="11rlWMmekfV-KqHWhoUA-33">
          <mxGeometry relative="1" as="geometry" />
        </mxCell>
        <mxCell id="11rlWMmekfV-KqHWhoUA-39" value="ДА" style="edgeLabel;html=1;align=center;verticalAlign=middle;resizable=0;points=[];fontColor=#000000;fontSize=18;" vertex="1" connectable="0" parent="11rlWMmekfV-KqHWhoUA-34">
          <mxGeometry x="0.2" y="2" relative="1" as="geometry">
            <mxPoint x="-2" y="-16" as="offset" />
          </mxGeometry>
        </mxCell>
        <mxCell id="11rlWMmekfV-KqHWhoUA-36" value="" style="edgeStyle=orthogonalEdgeStyle;rounded=0;orthogonalLoop=1;jettySize=auto;html=1;strokeColor=#0B4D6A;" edge="1" parent="1" source="11rlWMmekfV-KqHWhoUA-32" target="11rlWMmekfV-KqHWhoUA-35">
          <mxGeometry relative="1" as="geometry" />
        </mxCell>
        <mxCell id="11rlWMmekfV-KqHWhoUA-38" value="НЕТ" style="edgeLabel;html=1;align=center;verticalAlign=middle;resizable=0;points=[];fontColor=#000000;fontSize=18;" vertex="1" connectable="0" parent="11rlWMmekfV-KqHWhoUA-36">
          <mxGeometry x="-0.0612" y="-2" relative="1" as="geometry">
            <mxPoint as="offset" />
          </mxGeometry>
        </mxCell>
        <mxCell id="11rlWMmekfV-KqHWhoUA-32" value="Сцена получилась?" style="rhombus;whiteSpace=wrap;html=1;strokeColor=#d6b656;fillColor=#fff2cc;" vertex="1" parent="1">
          <mxGeometry x="319" y="820" width="190" height="80" as="geometry" />
        </mxCell>
        <mxCell id="11rlWMmekfV-KqHWhoUA-41" value="" style="edgeStyle=orthogonalEdgeStyle;rounded=0;orthogonalLoop=1;jettySize=auto;html=1;strokeColor=#0B4D6A;" edge="1" parent="1" source="11rlWMmekfV-KqHWhoUA-33" target="11rlWMmekfV-KqHWhoUA-40">
          <mxGeometry relative="1" as="geometry" />
        </mxCell>
        <mxCell id="11rlWMmekfV-KqHWhoUA-33" value="Пишем следующую сцену" style="whiteSpace=wrap;html=1;fillColor=#dae8fc;strokeColor=#6c8ebf;" vertex="1" parent="1">
          <mxGeometry x="289" y="960" width="250" height="60" as="geometry" />
        </mxCell>
        <mxCell id="11rlWMmekfV-KqHWhoUA-37" style="edgeStyle=orthogonalEdgeStyle;rounded=0;orthogonalLoop=1;jettySize=auto;html=1;entryX=1;entryY=0.5;entryDx=0;entryDy=0;strokeColor=#0B4D6A;" edge="1" parent="1" source="11rlWMmekfV-KqHWhoUA-35" target="11rlWMmekfV-KqHWhoUA-33">
          <mxGeometry relative="1" as="geometry">
            <Array as="points">
              <mxPoint x="700" y="990" />
            </Array>
          </mxGeometry>
        </mxCell>
        <mxCell id="11rlWMmekfV-KqHWhoUA-35" value="&lt;p class=&quot;MsoNormal&quot;&gt;Кратко фиксируем то, что должно произойти в сцене и переходим&lt;br&gt;к следующей сцене&lt;/p&gt;" style="whiteSpace=wrap;html=1;fillColor=#dae8fc;strokeColor=#6c8ebf;" vertex="1" parent="1">
          <mxGeometry x="620" y="830" width="150" height="60" as="geometry" />
        </mxCell>
        <mxCell id="11rlWMmekfV-KqHWhoUA-40" value="Готовый черновки" style="shape=trapezoid;perimeter=trapezoidPerimeter;whiteSpace=wrap;html=1;fixedSize=1;strokeColor=#82b366;fillColor=#d5e8d4;direction=west;" vertex="1" parent="1">
          <mxGeometry x="289" y="1050" width="250" height="40" as="geometry" />
        </mxCell>
        <mxCell id="11rlWMmekfV-KqHWhoUA-44" value="" style="edgeStyle=orthogonalEdgeStyle;rounded=0;orthogonalLoop=1;jettySize=auto;html=1;strokeColor=#0B4D6A;" edge="1" parent="1" source="11rlWMmekfV-KqHWhoUA-42" target="11rlWMmekfV-KqHWhoUA-43">
          <mxGeometry relative="1" as="geometry" />
        </mxCell>
        <mxCell id="11rlWMmekfV-KqHWhoUA-42" value="Второй черновик -&amp;nbsp;редактор" style="shape=trapezoid;perimeter=trapezoidPerimeter;whiteSpace=wrap;html=1;fixedSize=1;strokeColor=#82b366;fillColor=#d5e8d4;" vertex="1" parent="1">
          <mxGeometry x="290" y="1110" width="250" height="40" as="geometry" />
        </mxCell>
        <mxCell id="11rlWMmekfV-KqHWhoUA-46" value="" style="edgeStyle=orthogonalEdgeStyle;rounded=0;orthogonalLoop=1;jettySize=auto;html=1;strokeColor=#0B4D6A;" edge="1" parent="1" source="11rlWMmekfV-KqHWhoUA-43" target="11rlWMmekfV-KqHWhoUA-45">
          <mxGeometry relative="1" as="geometry" />
        </mxCell>
        <mxCell id="11rlWMmekfV-KqHWhoUA-43" value="Проверка сцены на наличие движения вперед" style="whiteSpace=wrap;html=1;fillColor=#dae8fc;strokeColor=#6c8ebf;" vertex="1" parent="1">
          <mxGeometry x="290" y="1190" width="250" height="50" as="geometry" />
        </mxCell>
        <mxCell id="11rlWMmekfV-KqHWhoUA-48" value="" style="edgeStyle=orthogonalEdgeStyle;rounded=0;orthogonalLoop=1;jettySize=auto;html=1;strokeColor=#0B4D6A;" edge="1" parent="1" source="11rlWMmekfV-KqHWhoUA-45" target="11rlWMmekfV-KqHWhoUA-47">
          <mxGeometry relative="1" as="geometry" />
        </mxCell>
        <mxCell id="11rlWMmekfV-KqHWhoUA-55" value="ДА" style="edgeLabel;html=1;align=center;verticalAlign=middle;resizable=0;points=[];fontColor=#000000;fontSize=18;" vertex="1" connectable="0" parent="11rlWMmekfV-KqHWhoUA-48">
          <mxGeometry x="-0.2222" y="2" relative="1" as="geometry">
            <mxPoint as="offset" />
          </mxGeometry>
        </mxCell>
        <mxCell id="11rlWMmekfV-KqHWhoUA-52" value="" style="edgeStyle=orthogonalEdgeStyle;rounded=0;orthogonalLoop=1;jettySize=auto;html=1;strokeColor=#0B4D6A;" edge="1" parent="1" source="11rlWMmekfV-KqHWhoUA-45" target="11rlWMmekfV-KqHWhoUA-51">
          <mxGeometry relative="1" as="geometry" />
        </mxCell>
        <mxCell id="11rlWMmekfV-KqHWhoUA-53" value="НЕТ" style="edgeLabel;html=1;align=center;verticalAlign=middle;resizable=0;points=[];fontColor=#000000;fontSize=18;" vertex="1" connectable="0" parent="11rlWMmekfV-KqHWhoUA-52">
          <mxGeometry relative="1" as="geometry">
            <mxPoint as="offset" />
          </mxGeometry>
        </mxCell>
        <mxCell id="11rlWMmekfV-KqHWhoUA-45" value="Движение есть?" style="rhombus;whiteSpace=wrap;html=1;strokeColor=#d6b656;fillColor=#fff2cc;" vertex="1" parent="1">
          <mxGeometry x="290" y="1300" width="250" height="80" as="geometry" />
        </mxCell>
        <mxCell id="11rlWMmekfV-KqHWhoUA-61" value="" style="edgeStyle=orthogonalEdgeStyle;rounded=0;orthogonalLoop=1;jettySize=auto;html=1;strokeColor=#0B4D6A;" edge="1" parent="1" source="11rlWMmekfV-KqHWhoUA-47" target="11rlWMmekfV-KqHWhoUA-60">
          <mxGeometry relative="1" as="geometry" />
        </mxCell>
        <mxCell id="11rlWMmekfV-KqHWhoUA-47" value="Оставляем сцену" style="whiteSpace=wrap;html=1;fillColor=#dae8fc;strokeColor=#6c8ebf;" vertex="1" parent="1">
          <mxGeometry x="290" y="1470" width="250" height="60" as="geometry" />
        </mxCell>
        <mxCell id="11rlWMmekfV-KqHWhoUA-54" style="edgeStyle=orthogonalEdgeStyle;rounded=0;orthogonalLoop=1;jettySize=auto;html=1;entryX=1;entryY=0.5;entryDx=0;entryDy=0;strokeColor=#0B4D6A;" edge="1" parent="1" source="11rlWMmekfV-KqHWhoUA-51" target="11rlWMmekfV-KqHWhoUA-47">
          <mxGeometry relative="1" as="geometry">
            <Array as="points">
              <mxPoint x="700" y="1500" />
            </Array>
          </mxGeometry>
        </mxCell>
        <mxCell id="11rlWMmekfV-KqHWhoUA-51" value="Удаляем" style="whiteSpace=wrap;html=1;fillColor=#dae8fc;strokeColor=#6c8ebf;" vertex="1" parent="1">
          <mxGeometry x="650" y="1310" width="110" height="60" as="geometry" />
        </mxCell>
        <mxCell id="11rlWMmekfV-KqHWhoUA-63" value="" style="edgeStyle=orthogonalEdgeStyle;rounded=0;orthogonalLoop=1;jettySize=auto;html=1;strokeColor=#0B4D6A;" edge="1" parent="1" source="11rlWMmekfV-KqHWhoUA-60" target="11rlWMmekfV-KqHWhoUA-62">
          <mxGeometry relative="1" as="geometry" />
        </mxCell>
        <mxCell id="11rlWMmekfV-KqHWhoUA-60" value="Второй Готовый черновик" style="shape=trapezoid;perimeter=trapezoidPerimeter;whiteSpace=wrap;html=1;fixedSize=1;strokeColor=#82b366;fillColor=#d5e8d4;direction=west;" vertex="1" parent="1">
          <mxGeometry x="290" y="1570" width="250" height="40" as="geometry" />
        </mxCell>
        <mxCell id="11rlWMmekfV-KqHWhoUA-65" value="" style="edgeStyle=orthogonalEdgeStyle;rounded=0;orthogonalLoop=1;jettySize=auto;html=1;strokeColor=#0B4D6A;" edge="1" parent="1" source="11rlWMmekfV-KqHWhoUA-62" target="11rlWMmekfV-KqHWhoUA-64">
          <mxGeometry relative="1" as="geometry" />
        </mxCell>
        <mxCell id="11rlWMmekfV-KqHWhoUA-62" value="Работа&lt;br/&gt;над стилем и исправление мелких огрехов" style="rounded=0;whiteSpace=wrap;html=1;strokeColor=#6c8ebf;fillColor=#dae8fc;" vertex="1" parent="1">
          <mxGeometry x="290" y="1644" width="250" height="60" as="geometry" />
        </mxCell>
        <mxCell id="11rlWMmekfV-KqHWhoUA-68" value="" style="edgeStyle=orthogonalEdgeStyle;rounded=0;orthogonalLoop=1;jettySize=auto;html=1;strokeColor=#0B4D6A;" edge="1" parent="1" source="11rlWMmekfV-KqHWhoUA-64" target="11rlWMmekfV-KqHWhoUA-66">
          <mxGeometry relative="1" as="geometry" />
        </mxCell>
        <mxCell id="11rlWMmekfV-KqHWhoUA-64" value="Коррекатура" style="whiteSpace=wrap;html=1;fillColor=#dae8fc;strokeColor=#6c8ebf;rounded=0;" vertex="1" parent="1">
          <mxGeometry x="290" y="1750" width="250" height="60" as="geometry" />
        </mxCell>
        <mxCell id="11rlWMmekfV-KqHWhoUA-66" value="&lt;font style=&quot;font-size: 24px;&quot;&gt;Конец&lt;/font&gt;" style="rounded=1;whiteSpace=wrap;html=1;strokeColor=#9673a6;fillColor=#e1d5e7;" vertex="1" parent="1">
          <mxGeometry x="280" y="1850" width="270" height="60" as="geometry" />
        </mxCell>
      </root>
    </mxGraphModel>
  </diagram>
</mxfile>
